# xmcd
#
# Track frame offsets:
#	150
#	10728
#	19738
#	31354
#	43764
#	54160
#	62892
#	74389
#	87934
#	99591
#	110552
#	120844
#	131268
#	142055
#	151657
#	165300
#	176024
#	186824
#	196956
#	212821
#	227244
#	238337
#	250196
#	265678
#
# Disc length: 3674 seconds
#
# Revision: 0
# Processed by: cddbd v1.5.2PL0 Copyright (c) Steve Scherf et al.
# Submitted via: EZCDAudioConverter 4.0.5.1
#
DISCID=440e5818
DTITLE=Ferlin Husky - Just For You +Where No One Stands Alone
DYEAR=1968
DGENRE=Gospel
TTITLE0=Just For You
TTITLE1=It's Such A Pretty Wprld Today
TTITLE2=Walk Through This World With Me
TTITLE3=Detroit City
TTITLE4=My Cup Runneth Over
TTITLE5=Get Out Of My Life
TTITLE6=You Pushed Me Too Far
TTITLE7=Cryin' Time
TTITLE8=Lonesome Out Tonight
TTITLE9=You Should Live My Life
TTITLE10=Don't Hurt Me Anymore
TTITLE11=The Bridge I Have Never Crossed
TTITLE12=I Believe
TTITLE13=I Saw The Light
TTITLE14=Peace In The Valley
TTITLE15=I'll Fly Away
TTITLE16=That Lucky Old Sun
TTITLE17=There's A Big Wheel
TTITLE18=Just A Closer Walk With Thee
TTITLE19=Farther Along
TTITLE20=It Is No Secret
TTITLE21=Lonesome Valley
TTITLE22=Where No One Stands Alone
TTITLE23=Somebody Touched Me
EXTD=
EXTT0=
EXTT1=
EXTT2=
EXTT3=
EXTT4=
EXTT5=
EXTT6=
EXTT7=
EXTT8=
EXTT9=
EXTT10=
EXTT11=
EXTT12=
EXTT13=
EXTT14=
EXTT15=
EXTT16=
EXTT17=
EXTT18=
EXTT19=
EXTT20=
EXTT21=
EXTT22=
EXTT23=
PLAYORDER=
